HIERARCHY
ROOT hip
{
	OFFSET 0.000000 0.000000 0.000000
	CHANNELS 6  Xposition Yposition Zposition Xrotation Zrotation Yrotation
	JOINT abdomen
	{
		OFFSET 0.000000 3.402643 0.000000
			CHANNELS 3 Xrotation Zrotation Yrotation
		JOINT chest
		{
			OFFSET 0.000000 8.438565 -0.680529
				CHANNELS 3 Xrotation Zrotation Yrotation
			JOINT neck
			{
				OFFSET 0.000000 10.207942 -0.272212
					CHANNELS 3 Xrotation Zrotation Yrotation
				JOINT head
				{
					OFFSET 0.000000 3.130431 0.000000
						CHANNELS 3 Xrotation Zrotation Yrotation
					End Site
					{
						OFFSET 0.000000 3.130435 0.000000
					}
				}
			}
			JOINT lCollar
			{
				OFFSET 3.470700 6.669187 -0.816635
					CHANNELS 3 Yrotation Zrotation Xrotation
				JOINT lShldr
				{
					OFFSET 3.198488 0.000000 0.000000
						CHANNELS 3 Zrotation Yrotation Xrotation
					JOINT lForeArm
					{
						OFFSET 10.139888 0.000000 0.000000
							CHANNELS 3 Yrotation Zrotation Xrotation
						JOINT lHand
						{
							OFFSET 8.370511 0.000000 0.000000
								CHANNELS 3 Zrotation Yrotation Xrotation
							End Site
							{
								OFFSET 4.083176 0.000000 0.000000
							}
						}
					}
				}
			}
			JOINT rCollar
			{
				OFFSET -3.470700 6.669187 -0.816635
					CHANNELS 3 Yrotation Zrotation Xrotation
				JOINT rShldr
				{
					OFFSET -3.198488 0.000000 0.000000
						CHANNELS 3 Zrotation Yrotation Xrotation
					JOINT rForeArm
					{
						OFFSET -10.139888 0.000000 0.000000
							CHANNELS 3 Yrotation Zrotation Xrotation
						JOINT rHand
						{
							OFFSET -8.370511 0.000000 0.000000
								CHANNELS 3 Zrotation Yrotation Xrotation
							End Site
							{
								OFFSET -4.083176 0.000000 0.000000
							}
						}
					}
				}
			}
		}
	}
	JOINT lThigh 
	{
		OFFSET 5.308129 -1.633274 1.361059
			CHANNELS 3 Xrotation Zrotation Yrotation
		JOINT lShin
		{
			OFFSET -2.041588 -20.007561 0.000000
				CHANNELS 3 Xrotation Zrotation Yrotation
			JOINT lFoot
			{
				OFFSET 0.000000 -19.190928 -1.224953
					CHANNELS 3 Xrotation Yrotation Zrotation
				End Site
				{
					OFFSET 0.000000 -2.449906 4.627600
				}
			}
		}
	}
	JOINT rThigh
	{
		OFFSET -5.308129 -1.633274 1.361059
			CHANNELS 3 Xrotation Zrotation Yrotation
		JOINT rShin
		{
			OFFSET 2.041588 -20.007561 0.000000
				CHANNELS 3 Xrotation Zrotation Yrotation
			JOINT rFoot
			{
				OFFSET 0.000000 -19.190928 -1.224953
					CHANNELS 3 Xrotation Yrotation Zrotation
				End Site
				{
					OFFSET 0.000000 -2.449906 4.627600
				}
			}
		}
	}
}
MOTION
Frames: 19
Frame Time: 0.032000
-475.742035 45.386547 2242.913086 0.00 0.00 -22.26 0.76 0.00 -0.00 -4.63 -0.01 0.00 0.00 0.00 -0.00 0.00 0.00 -0.00 -0.00 1.00 0.00 -73.01 9.00 18.98 -7.00 -0.00 -0.00 -1.04 -7.98 -4.49 -0.00 1.00 0.00 73.00 -9.00 18.99 6.99 -0.00 0.00 1.03 7.97 -4.49 0.69 -0.01 -0.01 0.00 0.00 -0.00 -0.43 0.00 -0.01 0.70 0.00 -0.01 0.00 0.00 -0.00 -0.00 -0.00 0.00 
-475.742035 45.383499 2242.925049 0.00 0.00 -22.26 0.78 0.00 -0.00 -4.72 -0.01 0.00 0.00 0.00 -0.00 0.00 0.00 -0.00 -0.00 1.00 0.00 -73.01 9.00 18.98 -7.00 -0.00 -0.00 -1.04 -7.98 -4.49 -0.00 1.00 0.00 73.00 -9.00 18.99 6.99 -0.00 0.00 1.03 7.97 -4.49 0.70 -0.01 -0.00 0.00 0.00 -0.00 -0.44 0.01 -0.01 0.72 0.00 -0.01 0.00 0.00 -0.00 -0.00 -0.00 0.00 
-475.742035 45.383499 2242.937256 0.00 0.00 -22.26 0.82 0.00 -0.00 -4.98 -0.01 0.00 0.00 0.00 -0.00 0.00 0.00 -0.00 -0.00 1.00 0.00 -73.01 9.00 18.99 -7.00 -0.00 -0.00 -1.04 -7.98 -4.49 -0.00 1.00 0.00 73.00 -9.00 18.99 6.99 -0.00 0.00 1.03 7.97 -4.49 0.75 -0.01 -0.00 0.00 0.00 -0.00 -0.47 0.01 -0.01 0.76 0.00 -0.01 0.00 0.00 -0.00 -0.00 -0.00 0.00 
-475.742035 45.383499 2242.949707 0.00 0.00 -22.26 0.84 0.00 -0.00 -5.06 -0.01 0.00 0.00 0.00 -0.00 0.00 0.00 -0.00 -0.00 1.00 0.00 -73.01 9.00 18.98 -7.00 -0.00 -0.00 -1.04 -7.98 -4.49 -0.00 1.00 0.00 73.00 -9.00 18.99 6.99 -0.00 0.00 1.03 7.97 -4.49 0.77 -0.01 -0.00 0.00 0.00 -0.00 -0.49 0.01 -0.01 0.77 0.00 -0.01 0.00 0.00 -0.00 -0.00 -0.00 0.00 
-475.742035 45.386547 2242.964844 0.00 0.00 -22.26 0.87 0.00 -0.00 -5.24 -0.01 0.00 0.00 0.00 -0.00 0.00 0.00 -0.00 -0.00 1.00 0.00 -73.01 9.00 18.98 -7.00 -0.00 -0.00 -1.04 -7.98 -4.49 -0.00 1.00 0.00 73.00 -9.00 18.99 6.99 -0.00 0.00 1.03 7.97 -4.49 0.80 -0.01 -0.00 0.00 0.00 -0.00 -0.50 0.02 -0.01 0.80 0.00 -0.01 0.00 0.00 -0.00 -0.00 -0.00 0.00 
-475.742035 45.383499 2242.977051 0.00 0.00 -22.26 0.90 0.00 -0.00 -5.40 -0.01 0.00 0.00 0.00 -0.00 0.00 0.00 -0.00 -0.00 1.00 0.00 -73.01 9.00 18.98 -7.00 -0.00 -0.00 -1.04 -7.98 -4.49 -0.00 1.00 0.00 73.00 -9.00 18.99 6.99 -0.00 0.00 1.03 7.97 -4.49 0.83 -0.01 -0.00 0.00 0.00 -0.00 -0.52 0.02 -0.01 0.83 0.00 -0.01 0.00 0.00 -0.00 -0.00 -0.00 0.00 
-475.742035 45.383499 2242.989258 0.00 0.00 -22.26 0.92 0.00 -0.00 -5.56 -0.01 0.00 0.00 0.00 -0.00 0.00 0.00 -0.00 -0.00 1.00 0.00 -73.01 9.00 18.98 -7.00 -0.00 -0.00 -1.04 -7.98 -4.49 -0.00 1.00 0.00 73.00 -9.00 18.99 6.99 -0.00 0.00 1.03 7.97 -4.49 0.85 -0.01 -0.00 0.00 0.00 -0.00 -0.54 0.02 -0.01 0.85 0.00 -0.01 0.00 0.00 -0.00 -0.00 -0.00 0.00 
-475.742035 45.383499 2243.001465 0.00 0.00 -22.26 0.93 0.00 -0.00 -5.65 -0.01 0.00 0.00 0.00 -0.00 0.00 0.00 -0.00 -0.00 1.00 0.00 -73.01 9.00 18.98 -7.00 -0.00 -0.00 -1.04 -7.98 -4.49 -0.00 1.00 0.00 73.00 -9.00 18.99 6.99 -0.00 0.00 1.03 7.97 -4.49 0.86 -0.01 -0.00 0.00 0.00 -0.00 -0.55 0.02 -0.01 0.86 0.00 -0.01 0.00 0.00 -0.00 -0.00 -0.00 0.00 
-475.742035 45.386547 2243.016602 0.00 0.00 -22.26 0.95 0.00 -0.00 -5.78 -0.01 0.00 0.00 0.00 -0.00 0.00 0.00 -0.00 -0.00 1.00 0.00 -73.01 9.00 18.98 -7.00 -0.00 -0.00 -1.04 -7.98 -4.49 -0.00 1.00 0.00 73.00 -9.00 18.99 6.99 -0.00 0.00 1.03 7.97 -4.49 0.88 -0.01 -0.00 0.00 0.00 -0.00 -0.56 0.02 -0.01 0.89 0.00 -0.01 0.00 0.00 -0.00 -0.00 -0.00 0.00 
-475.742035 45.383499 2243.029053 0.00 0.00 -22.26 0.98 0.00 -0.00 -5.93 -0.01 0.00 0.00 0.00 -0.00 0.00 0.00 -0.00 -0.00 1.00 0.00 -73.01 9.00 18.99 -7.00 -0.00 -0.00 -1.04 -7.98 -4.49 -0.00 1.00 0.00 73.00 -9.00 18.99 6.99 -0.00 0.00 1.03 7.97 -4.49 0.91 -0.01 -0.00 0.00 0.00 -0.00 -0.57 0.01 -0.01 0.91 0.00 -0.02 0.00 0.00 -0.00 -0.00 -0.00 0.00 
-475.742035 45.383499 2243.041260 0.00 0.00 -22.26 1.00 0.00 -0.00 -6.06 -0.01 0.00 0.00 0.00 -0.00 0.00 0.00 -0.00 -0.00 1.00 0.00 -73.01 8.99 18.99 -7.00 -0.00 -0.00 -1.04 -7.98 -4.49 -0.00 1.00 0.00 73.00 -9.00 18.99 6.99 -0.00 0.00 1.03 7.97 -4.49 0.93 -0.01 0.00 0.00 0.00 -0.00 -0.58 0.01 -0.00 0.93 0.00 -0.02 0.00 0.00 -0.00 -0.00 -0.00 0.00 
-475.742035 45.380447 2243.053223 0.00 0.00 -22.26 1.02 0.00 -0.00 -6.19 -0.01 0.00 0.00 0.00 -0.00 0.00 0.00 -0.00 -0.00 1.00 0.00 -73.01 9.00 18.98 -7.00 -0.00 -0.00 -1.04 -7.98 -4.49 -0.00 1.00 0.00 73.00 -9.00 18.99 6.99 -0.00 0.00 1.03 7.97 -4.49 0.95 -0.02 0.00 0.00 0.00 -0.00 -0.59 0.03 0.00 0.96 0.00 -0.02 0.00 0.00 -0.00 -0.00 -0.00 0.00 
-475.742035 45.383499 2243.065430 0.00 0.00 -22.26 1.04 0.00 -0.00 -6.30 -0.01 0.00 0.00 0.00 -0.00 0.00 0.00 -0.00 -0.00 1.00 0.00 -73.01 9.00 18.98 -7.00 -0.00 -0.00 -1.04 -7.98 -4.49 -0.00 1.00 0.00 73.00 -9.00 18.99 6.99 -0.00 0.00 1.03 7.97 -4.49 0.97 -0.02 0.00 0.00 0.00 -0.00 -0.57 0.06 0.02 0.98 0.00 -0.02 0.00 0.00 -0.00 -0.00 -0.00 0.00 
-475.742035 45.380447 2243.074707 0.00 0.00 -22.26 1.05 0.00 -0.00 -6.41 -0.01 0.00 0.00 0.00 -0.00 0.00 0.00 -0.00 -0.00 1.00 0.00 -73.01 9.00 18.98 -7.00 -0.00 -0.00 -1.04 -7.98 -4.49 -0.00 1.00 0.00 73.00 -9.00 18.99 6.99 -0.00 0.00 1.03 7.97 -4.49 0.98 -0.02 -0.00 0.00 0.00 -0.00 -0.56 0.06 0.02 0.99 0.00 -0.02 0.00 0.00 -0.00 -0.00 -0.00 0.00 
-475.742035 45.386547 2243.090088 0.00 0.00 -22.26 1.07 0.00 -0.00 -6.49 -0.01 0.00 0.00 0.00 -0.00 0.00 0.00 -0.00 -0.00 1.00 0.00 -73.01 9.00 18.98 -7.00 -0.00 -0.00 -1.04 -7.98 -4.49 -0.00 1.00 0.00 73.00 -9.00 18.99 6.99 -0.00 0.00 1.03 7.97 -4.49 0.99 -0.03 -0.00 0.00 0.00 -0.00 -0.58 0.07 0.02 1.00 0.00 -0.02 0.00 0.00 -0.00 -0.00 -0.00 0.00 
-475.742035 45.380447 2243.102051 -0.01 -0.00 -22.26 1.08 0.00 -0.00 -6.56 -0.01 0.00 0.00 0.00 -0.00 0.00 0.00 -0.00 -0.00 1.00 0.00 -73.01 9.00 18.98 -7.00 -0.00 -0.00 -1.04 -7.98 -4.49 -0.00 1.00 0.00 73.00 -9.00 18.99 6.99 -0.00 0.00 1.03 7.97 -4.49 1.00 -0.03 -0.00 0.00 0.00 -0.00 -0.59 0.07 0.02 1.01 0.00 -0.02 0.00 0.00 -0.00 -0.00 -0.00 0.00 
-475.738983 45.372818 2243.117432 -0.06 -0.02 -22.26 1.10 0.00 -0.00 -6.68 -0.01 0.00 0.00 0.00 -0.00 0.00 0.00 -0.00 -0.00 1.00 0.00 -73.01 9.00 18.98 -7.00 -0.00 -0.00 -1.04 -7.98 -4.49 -0.00 1.00 0.00 73.00 -9.00 18.99 6.99 -0.00 0.00 1.03 7.97 -4.49 1.02 -0.03 -0.00 0.00 0.00 -0.00 -0.61 0.07 0.02 1.04 0.00 -0.02 0.00 0.00 -0.00 -0.00 -0.00 0.00 
-475.738983 45.364426 2243.126465 -0.10 -0.04 -22.26 1.11 0.00 -0.00 -6.72 -0.01 0.00 0.00 0.00 -0.00 0.00 0.00 -0.00 -0.00 1.00 0.00 -73.01 9.00 18.98 -7.00 -0.00 -0.00 -1.04 -7.98 -4.49 -0.00 1.00 0.00 73.00 -9.00 18.99 6.99 -0.00 0.00 1.03 7.97 -4.49 1.03 -0.03 -0.00 0.00 0.00 -0.00 -0.61 0.07 0.02 1.04 0.00 -0.02 0.00 0.00 -0.00 -0.00 -0.00 0.00 
-475.738983 45.360611 2243.141846 -0.17 -0.07 -22.26 1.12 0.00 -0.00 -6.80 -0.01 0.00 0.00 0.00 -0.00 0.00 0.00 -0.00 -0.00 1.00 0.00 -73.01 9.00 18.98 -7.00 -0.00 -0.00 -1.04 -7.98 -4.49 -0.00 1.00 0.00 73.00 -9.00 18.99 6.99 -0.00 0.00 1.03 7.97 -4.49 1.04 -0.03 -0.00 0.00 0.00 -0.00 -0.62 0.07 0.02 1.05 0.00 -0.02 0.00 0.00 -0.00 -0.00 -0.00 0.00 
